<svg width="120" height="120" viewBox="0 0 120 120" fill="none" xmlns="http://www.w3.org/2000/svg">
<rect x="5" y="5" width="110" height="110" rx="55" fill="#E7FE55" fill-opacity="0.65"/>
<path d="M90.6667 88.3334C93.111 93 94.3333 110 94.3333 110H25.6667C25.6667 110 26.889 93 29.3333 88.3334C33 81.3334 60 72.3334 60 72.3334C60 72.3334 87 81.3334 90.6667 88.3334Z" fill="url(#paint0_linear_222_1793)"/>
<path d="M58.6667 102C58.6667 101.736 58.7449 101.479 58.8914 101.259C59.0379 101.04 59.2461 100.869 59.4898 100.768C59.7334 100.667 60.0015 100.641 60.2601 100.692C60.5188 100.744 60.7563 100.871 60.9428 101.057C61.1293 101.244 61.2563 101.481 61.3077 101.74C61.3592 101.999 61.3328 102.267 61.2318 102.51C61.1309 102.754 60.96 102.962 60.7408 103.109C60.5215 103.255 60.2637 103.333 60 103.333C59.6464 103.333 59.3072 103.193 59.0572 102.943C58.8071 102.693 58.6667 102.354 58.6667 102ZM58.6667 95.3334C58.6667 95.0697 58.7449 94.8119 58.8914 94.5926C59.0379 94.3733 59.2461 94.2025 59.4898 94.1015C59.7334 94.0006 60.0015 93.9742 60.2601 94.0257C60.5188 94.0771 60.7563 94.2041 60.9428 94.3906C61.1293 94.577 61.2563 94.8146 61.3077 95.0733C61.3592 95.3319 61.3328 95.6 61.2318 95.8436C61.1309 96.0873 60.96 96.2955 60.7408 96.442C60.5215 96.5885 60.2637 96.6667 60 96.6667C59.6464 96.6667 59.3072 96.5262 59.0572 96.2762C58.8071 96.0261 58.6667 95.687 58.6667 95.3334ZM58.6667 88.6667C58.6667 88.403 58.7449 88.1452 58.8914 87.9259C59.0379 87.7067 59.2461 87.5358 59.4898 87.4349C59.7334 87.334 60.0015 87.3075 60.2601 87.359C60.5188 87.4104 60.7563 87.5374 60.9428 87.7239C61.1293 87.9104 61.2563 88.1479 61.3077 88.4066C61.3592 88.6652 61.3328 88.9333 61.2318 89.177C61.1309 89.4206 60.96 89.6288 60.7408 89.7753C60.5215 89.9218 60.2637 90 60 90C59.6464 90 59.3072 89.8596 59.0572 89.6095C58.8071 89.3595 58.6667 89.0203 58.6667 88.6667V88.6667Z" fill="white"/>
<path d="M88.4903 68.4704L34.338 61.9261C31.6682 47.7532 34.8349 38.8235 43.838 35.1371C48 21.5001 64.199 22.6094 68.7907 23.7211C84.4158 27.5046 90.9823 42.4211 88.4903 68.4704Z" fill="url(#paint1_linear_222_1793)"/>
<path d="M52 76.3334V56.3334C43.6597 56.2087 45.2863 41.756 53.6667 46.1667C55.1667 46.8334 59 45 57.6667 40.5C66.6667 47.1667 79.208 35.4667 80 42.6667C81.5583 56.837 78.543 68.484 70.5473 68.4847C69.6953 68.5171 68.8422 68.4665 68 68.3334V76.3334C65.39 77.8889 62.78 78.6667 60.17 78.6667C57.56 78.6667 54.8367 77.8889 52 76.3334Z" fill="#FFDBC9"/>
<path d="M68 68.3334V71C63 71 59.1111 68.6112 56.3333 63.8334C59.6667 66.0556 63.5556 67.5556 68 68.3334Z" fill="#FFBC9E"/>
<path d="M59.989 78.325C62.2693 78.216 68 77.036 68 74.4867V72.3334C68.6113 72.3334 70.3617 73.7774 71.262 75C74.8207 79.8334 70.8733 84.1667 67.654 84.1667C63.592 84.1667 60.9 80.7727 60 79.14C59.1 80.7734 56.408 84.1667 52.346 84.1667C49.1267 84.1667 45.1793 79.8334 48.738 75C49.6383 73.7774 51.3887 72.3334 52 72.3334V74.4867C52 77.036 57.58 78.216 59.989 78.325Z" fill="white"/>
<rect x="5" y="5" width="110" height="110" rx="55" stroke="#FAFAFA" stroke-width="10"/>
<defs>
<linearGradient id="paint0_linear_222_1793" x1="60" y1="72.3334" x2="60" y2="110" gradientUnits="userSpaceOnUse">
<stop stop-color="#1D0024"/>
<stop offset="1" stop-color="#100014"/>
</linearGradient>
<linearGradient id="paint1_linear_222_1793" x1="61.2133" y1="68.4704" x2="61.2133" y2="23.1111" gradientUnits="userSpaceOnUse">
<stop stop-color="#E6864E"/>
<stop offset="1" stop-color="#E67240"/>
</linearGradient>
</defs>
</svg>
