<svg width="98" height="93" viewBox="0 0 98 93" fill="none" xmlns="http://www.w3.org/2000/svg">
<g clip-path="url(#clip0_524_347)">
<rect x="0.882812" y="0.511719" width="96.5402" height="92.2464" rx="46.1232" fill="#A8DF8D"/>
<path d="M40.5573 64.7362C43.3442 60.3084 49.7427 51.8212 64.9778 39.8955C87.9673 21.8998 66.2698 5.43968 42.9604 14.2062C40.4669 15.1442 33.5572 11.3895 27.1565 15.3451C23.0277 17.8967 24.6345 19.8965 23.0268 21.8962C21.4191 23.8959 15.2209 23.7782 13.8631 28.9708C13.0589 32.0471 15.2843 35.2695 14.9867 37.585C14.689 39.9004 12.3398 41.9876 12.2277 45.0444C12.1792 46.3354 12.3973 47.623 12.8696 48.8335C13.3419 50.044 14.0592 51.1537 14.9804 52.0993C15.9017 53.0448 17.0088 53.8077 18.2387 54.3444C19.4685 54.881 20.797 55.1809 22.1482 55.2269C22.1592 57.7793 23.2022 60.2288 25.0591 62.0635C26.9161 63.8982 29.4433 64.9761 32.1126 65.072C33.8242 65.1318 35.5241 64.78 37.0564 64.0488C38.5768 65.3878 39.882 65.8088 40.5573 64.7362Z" fill="url(#paint0_linear_524_347)"/>
<path d="M46.2555 13.1187C42.2922 15.5479 37.3889 23.5149 39.5411 34.2096C40.0106 36.5431 38.5435 37.2418 37.2885 34.3634C33.5019 25.6796 33.0629 17.8482 39.5411 14.1021C40.6674 13.4542 41.311 13.9791 42.1155 13.9154C43.6457 13.7943 45.7059 12.7583 46.2555 13.1187Z" fill="url(#paint1_linear_524_347)"/>
<path d="M41.1067 60.1619C41.1067 57.3945 41.0082 43.7445 41.013 43.5139C33.0616 44.6338 33.2225 30.1818 41.2676 33.7179C43.0375 34.7941 48.0254 33.7179 47.5427 24.8008C56.2313 33.7179 66.3188 23.3175 67.1838 31.7924C68.3651 43.3648 67.1767 55.4755 59.6501 55.4764C58.8267 55.4669 58.0058 55.3885 57.1967 55.2421V60.1619C57.1967 63.2368 62.9891 64.7742 62.9891 64.7742C62.9891 64.7742 52.9837 73.7836 48.8299 73.7338C44.6761 73.684 35.3142 64.7742 35.3142 64.7742C35.3142 64.7742 41.1067 63.2368 41.1067 60.1619Z" fill="url(#paint2_linear_524_347)"/>
<g style="mix-blend-mode:multiply">
<path d="M57.199 55.2404C53.2067 54.3944 49.4236 52.8178 46.0586 50.5977C46.0586 50.5977 48.8351 57.0835 57.1886 58.3141L57.199 55.2404Z" fill="#FFDBC9"/>
</g>
<path d="M78.759 74.0004C81.0936 78.9577 82.2988 93.9871 82.2988 93.9871H16.0078C16.0078 93.9871 17.213 78.9577 19.5476 74.0004C21.593 69.6577 35.071 64.6715 39.0208 63.2383C41.3014 65.676 44.5696 67.2356 49.1533 67.2356C53.737 67.2356 57.0052 65.676 59.2858 63.2383C63.2356 64.6715 76.7136 69.6577 78.759 74.0004Z" fill="url(#paint3_linear_524_347)"/>
</g>
<defs>
<linearGradient id="paint0_linear_524_347" x1="42.3798" y1="65.4406" x2="44.1899" y2="11.3711" gradientUnits="userSpaceOnUse">
<stop stop-color="#E6864E"/>
<stop offset="1" stop-color="#E67240"/>
</linearGradient>
<linearGradient id="paint1_linear_524_347" x1="40.3953" y1="13.043" x2="40.3953" y2="36.2539" gradientUnits="userSpaceOnUse">
<stop stop-color="#1D0024"/>
<stop offset="1" stop-color="#100014"/>
</linearGradient>
<linearGradient id="paint2_linear_524_347" x1="51.3592" y1="24.8008" x2="51.3592" y2="73.734" gradientUnits="userSpaceOnUse">
<stop stop-color="#FFE0CC"/>
<stop offset="1" stop-color="#FFEADB"/>
</linearGradient>
<linearGradient id="paint3_linear_524_347" x1="49.1533" y1="63.2383" x2="49.1533" y2="93.9871" gradientUnits="userSpaceOnUse">
<stop stop-color="#130027"/>
<stop offset="1" stop-color="#130017"/>
</linearGradient>
<clipPath id="clip0_524_347">
<rect x="0.882812" y="0.511719" width="96.5402" height="92.2464" rx="46.1232" fill="white"/>
</clipPath>
</defs>
</svg>
