<svg width="54" height="50" viewBox="0 0 54 50" fill="none" xmlns="http://www.w3.org/2000/svg">
<path fill-rule="evenodd" clip-rule="evenodd" d="M48.8511 20.45C48.0048 12.5 42.8725 0 27.0115 0C11.1505 0 6.01814 12.5 5.17186 20.45C2.20307 21.4818 0.244806 24.0921 0.257878 27V30.5C0.257878 34.366 3.68022 37.5 7.90181 37.5C12.1234 37.5 15.5457 34.366 15.5457 30.5V27C15.532 24.1549 13.6456 21.5982 10.7683 20.525C11.3143 15.925 13.9896 5 27.0115 5C40.0334 5 42.6814 15.925 43.2274 20.525C40.3559 21.6006 38.4791 24.1589 38.4773 27V30.5C38.4892 33.1875 40.1742 35.6332 42.8179 36.8C41.6713 38.775 38.7503 41.45 31.5705 42.25C30.1353 40.2542 27.3586 39.4675 24.9434 40.3722C22.5282 41.277 21.1497 43.6203 21.6533 45.9651C22.157 48.3098 24.402 50 27.0115 50C29.0735 49.9895 30.9532 48.9161 31.8708 47.225C43.5823 46 47.3223 40.475 48.4962 37.225C51.672 36.2829 53.8078 33.5568 53.765 30.5V27C53.7782 24.0921 51.8199 21.4818 48.8511 20.45ZM10.0858 30.5C10.0858 31.6046 9.10798 32.5 7.90181 32.5C6.69564 32.5 5.71785 31.6046 5.71785 30.5V27C5.71785 26.2855 6.13411 25.6252 6.80983 25.2679C7.48555 24.9107 8.31807 24.9107 8.99379 25.2679C9.66951 25.6252 10.0858 26.2855 10.0858 27V30.5ZM43.9372 27C43.9372 25.8954 44.915 25 46.1212 25C47.3273 25 48.3051 25.8954 48.3051 27V30.5C48.3051 31.6046 47.3273 32.5 46.1212 32.5C44.915 32.5 43.9372 31.6046 43.9372 30.5V27Z" fill="white"/>
</svg>
