<svg width="28" height="28" viewBox="0 0 28 28" fill="none" xmlns="http://www.w3.org/2000/svg">
<path d="M18.0833 5.83337C19.7219 5.83337 20.5412 5.83337 21.1297 6.22661C21.3845 6.39685 21.6032 6.6156 21.7734 6.87038C22.1667 7.4589 22.1667 8.27817 22.1667 9.91671V21C22.1667 23.1999 22.1667 24.2999 21.4833 24.9833C20.7998 25.6667 19.6999 25.6667 17.5 25.6667H10.5C8.30012 25.6667 7.20018 25.6667 6.51676 24.9833C5.83334 24.2999 5.83334 23.1999 5.83334 21V9.91671C5.83334 8.27817 5.83334 7.4589 6.22658 6.87038C6.39682 6.6156 6.61557 6.39685 6.87035 6.22661C7.45887 5.83337 8.27814 5.83337 9.91668 5.83337" stroke="#A8DF8D" stroke-width="2"/>
<path d="M10.5 5.83333C10.5 4.54467 11.5447 3.5 12.8333 3.5H15.1667C16.4553 3.5 17.5 4.54467 17.5 5.83333C17.5 7.122 16.4553 8.16667 15.1667 8.16667H12.8333C11.5447 8.16667 10.5 7.122 10.5 5.83333Z" stroke="#A8DF8D" stroke-width="2"/>
<path d="M10.5 14L17.5 14" stroke="#A8DF8D" stroke-width="2" stroke-linecap="round"/>
<path d="M10.5 18.6666L15.1667 18.6666" stroke="#A8DF8D" stroke-width="2" stroke-linecap="round"/>
</svg>
