<svg width="64" height="64" viewBox="0 0 64 65" fill="none" xmlns="http://www.w3.org/2000/svg">
<path d="M56 32.3789C56 19.1241 45.2548 8.37891 32 8.37891C18.7452 8.37891 8 19.1241 8 32.3789C8 45.6337 18.7452 56.3789 32 56.3789C45.2548 56.3789 56 45.6337 56 32.3789Z" fill="#C1FAA6" stroke="#C1FAA6" stroke-width="5.33333"/>
<path d="M21.332 31.0443L29.332 39.0443L42.6654 25.7109" stroke="#288633" stroke-width="5.33333" stroke-linecap="round" stroke-linejoin="round"/>
<path d="M56 32.3789C56 19.1241 45.2548 8.37891 32 8.37891C18.7452 8.37891 8 19.1241 8 32.3789C8 45.6337 18.7452 56.3789 32 56.3789C45.2548 56.3789 56 45.6337 56 32.3789Z" stroke="#288633" stroke-width="5.33333" stroke-linecap="round" stroke-linejoin="round"/>
</svg>
