<svg width="28" height="28" viewBox="0 0 28 28" fill="none" xmlns="http://www.w3.org/2000/svg">
<path d="M2.33334 14.0001L1.55247 13.3754L1.05273 14.0001L1.55247 14.6248L2.33334 14.0001ZM12.8333 15.0001C13.3856 15.0001 13.8333 14.5524 13.8333 14.0001C13.8333 13.4478 13.3856 13.0001 12.8333 13.0001V15.0001ZM6.21913 7.54194L1.55247 13.3754L3.11422 14.6248L7.78089 8.79131L6.21913 7.54194ZM1.55247 14.6248L6.21913 20.4582L7.78089 19.2089L3.11422 13.3754L1.55247 14.6248ZM2.33334 15.0001H12.8333V13.0001H2.33334V15.0001Z" fill="#A8DF8D"/>
<path d="M11.6667 9.48746V8.05526C11.6667 6.43692 11.6667 5.62775 12.1406 5.06826C12.6146 4.50877 13.4127 4.37574 15.009 4.10968L18.6802 3.4978C21.9233 2.95727 23.5449 2.68701 24.6058 3.5857C25.6667 4.4844 25.6667 6.12832 25.6667 9.41616V18.5844C25.6667 21.8723 25.6667 23.5162 24.6058 24.4149C23.5449 25.3136 21.9233 25.0433 18.6802 24.5028L15.009 23.8909C13.4127 23.6249 12.6146 23.4918 12.1406 22.9323C11.6667 22.3728 11.6667 21.5637 11.6667 19.9453V18.744" stroke="#A8DF8D" stroke-width="2"/>
</svg>
