<svg width="54" height="50" viewBox="0 0 54 50" fill="none" xmlns="http://www.w3.org/2000/svg">
<path fill-rule="evenodd" clip-rule="evenodd" d="M18.0918 4.16797C25.4797 4.16797 31.4688 9.76441 31.4688 16.668C31.4688 17.9308 31.2684 19.1499 30.8957 20.2989L44.8457 33.3346C47.3084 35.6358 47.3084 39.3668 44.8457 41.668C42.3831 43.9692 38.3904 43.9692 35.9278 41.668L21.9775 28.6324C20.7478 28.9807 19.4432 29.168 18.0918 29.168C10.7039 29.168 4.71484 23.5715 4.71484 16.668C4.71484 15.3357 4.93788 14.0522 5.35096 12.8481L11.6787 18.7513L17.9506 16.7994L18.2307 16.5377L20.3213 10.6824L13.9862 4.76773C15.2799 4.37831 16.6595 4.16797 18.0918 4.16797Z" fill="#001f3f"/>
</svg>
