<svg width="54" height="50" viewBox="0 0 54 50" fill="none" xmlns="http://www.w3.org/2000/svg">
<path fill-rule="evenodd" clip-rule="evenodd" d="M44.5652 45H9.45237C7.5625 45 6.16693 43.2575 6.87973 41.655C10.187 34.245 17.9568 30 27.0074 30C36.0608 30 43.8306 34.245 47.1379 41.655C47.8507 43.2575 46.4551 45 44.5652 45ZM16.0833 15C16.0833 9.48497 20.9855 4.99997 27.0074 4.99997C33.0321 4.99997 37.9315 9.48497 37.9315 15C37.9315 20.515 33.0321 25 27.0074 25C20.9855 25 16.0833 20.515 16.0833 15ZM53.6432 44.09C51.6577 35.6925 45.4473 29.4949 37.2734 26.6824C41.6048 23.4899 44.131 18.3273 43.2024 12.6748C42.1264 6.11733 36.1673 0.869943 28.9738 0.104942C19.0438 -0.952559 10.6212 6.12247 10.6212 15C10.6212 19.725 13.0136 23.9349 16.7442 26.6824C8.56751 29.4949 2.35988 35.6925 0.371688 44.09C-0.349304 47.1425 2.33803 50 5.74909 50H48.2658C51.6796 50 54.3669 47.1425 53.6432 44.09Z" fill="white"/>
</svg>
