<svg width="54" height="50" viewBox="0 0 54 50" fill="none" xmlns="http://www.w3.org/2000/svg">
<path d="M29.4385 0C22.0188 0 16.0039 5.59645 16.0039 12.5C16.0039 13.8807 17.2069 15 18.6908 15C20.1748 15 21.3777 13.8807 21.3777 12.5C21.3777 8.35788 24.9868 5 29.4385 5H40.1861C44.6381 5 48.2469 8.35788 48.2469 12.5V37.5C48.2469 41.6423 44.6381 45 40.1861 45H29.4385C24.9868 45 21.3777 41.6423 21.3777 37.5C21.3777 36.1193 20.1748 35 18.6908 35C17.2069 35 16.0039 36.1193 16.0039 37.5C16.0039 44.4035 22.0188 50 29.4385 50H40.1861C47.6058 50 53.6207 44.4035 53.6207 37.5V12.5C53.6207 5.59645 47.6058 0 40.1861 0H29.4385Z" fill="white"/>
<path d="M32.125 22.5C33.609 22.5 34.8119 23.6193 34.8119 25C34.8119 26.3807 33.609 27.5 32.125 27.5V22.5Z" fill="white"/>
<path d="M9.87254 22.5002C10.1117 22.2257 10.3409 21.9594 10.5577 21.7052C11.2173 20.9309 11.7757 20.2512 12.1701 19.7639C12.3674 19.5201 12.5241 19.3238 12.6323 19.1875L12.7575 19.0292L12.791 18.9865L12.8029 18.9714C12.803 18.9712 12.8042 18.9696 10.6305 17.5002L12.8029 18.9714C13.6751 17.8544 13.4103 16.2892 12.2098 15.4776C11.0093 14.6661 9.32911 14.9137 8.45683 16.0306L8.44926 16.0402L8.42174 16.0752L8.30954 16.2172C8.21028 16.3422 8.06352 16.526 7.87705 16.7564C7.50376 17.2177 6.97312 17.8637 6.34688 18.5986C5.08069 20.0844 3.47703 21.8704 2.01323 23.2324L0.113281 25.0002L2.01323 26.7679C3.47703 28.1299 5.08069 29.9159 6.34688 31.4017C6.97312 32.1367 7.50376 32.7827 7.87705 33.2439C8.06352 33.4744 8.21028 33.6582 8.30954 33.7832L8.42174 33.9252L8.44926 33.9602L8.45552 33.9682C9.3278 35.0849 11.0093 35.3342 12.2098 34.5227C13.4103 33.7112 13.6765 32.1477 12.8042 31.0307L10.6305 32.5002C12.8042 31.0307 12.8043 31.0309 12.8042 31.0307L12.791 31.0139L12.7575 30.9712L12.6323 30.8129C12.5241 30.6764 12.3674 30.4804 12.1701 30.2364C11.7757 29.7492 11.2173 29.0694 10.5577 28.2952C10.3409 28.0409 10.1117 27.7747 9.87254 27.5002H32.1258V22.5002H9.87254Z" fill="white"/>
</svg>
